<svg width="153" height="24" viewBox="0 0 153 24" fill="none" xmlns="http://www.w3.org/2000/svg">
<path d="M0 12C0 18.6274 5.37258 24 12 24L12 0C5.37258 0 0 5.37258 0 12Z" fill="url(#paint0_linear_4_136)"/>
<path d="M24 12C24 18.6274 18.6274 24 12 24L12 0C18.6274 0 24 5.37258 24 12Z" fill="url(#paint1_linear_4_136)"/>
<path d="M43.432 6.64801C42.04 6.64801 40.976 7.16801 40.24 8.20801C39.504 9.24801 39.136 10.672 39.136 12.48C39.136 14.304 39.472 15.72 40.144 16.728C40.832 17.72 41.928 18.216 43.432 18.216C44.136 18.216 44.832 18.136 45.52 17.976C46.224 17.816 46.984 17.592 47.8 17.304V20.352C47.048 20.656 46.304 20.88 45.568 21.024C44.832 21.168 44.008 21.24 43.096 21.24C41.336 21.24 39.88 20.88 38.728 20.16C37.592 19.424 36.752 18.4 36.208 17.088C35.664 15.76 35.392 14.216 35.392 12.456C35.392 10.728 35.704 9.20001 36.328 7.87201C36.952 6.54401 37.856 5.50401 39.04 4.75201C40.24 4.00001 41.704 3.62401 43.432 3.62401C44.28 3.62401 45.128 3.73601 45.976 3.96001C46.84 4.16801 47.664 4.45601 48.448 4.82401L47.272 7.77601C46.632 7.47201 45.984 7.20801 45.328 6.98401C44.688 6.76001 44.056 6.64801 43.432 6.64801Z" fill="white"/>
<path d="M63.0572 14.424C63.0572 16.6 62.4812 18.28 61.3292 19.464C60.1932 20.648 58.6412 21.24 56.6732 21.24C55.4572 21.24 54.3692 20.976 53.4092 20.448C52.4652 19.92 51.7212 19.152 51.1772 18.144C50.6332 17.12 50.3612 15.88 50.3612 14.424C50.3612 12.248 50.9292 10.576 52.0652 9.40801C53.2012 8.24001 54.7612 7.65601 56.7452 7.65601C57.9772 7.65601 59.0652 7.92001 60.0092 8.44801C60.9532 8.97601 61.6972 9.74401 62.2412 10.752C62.7852 11.744 63.0572 12.968 63.0572 14.424ZM54.0092 14.424C54.0092 15.72 54.2172 16.704 54.6332 17.376C55.0652 18.032 55.7612 18.36 56.7212 18.36C57.6652 18.36 58.3452 18.032 58.7612 17.376C59.1932 16.704 59.4092 15.72 59.4092 14.424C59.4092 13.128 59.1932 12.16 58.7612 11.52C58.3452 10.864 57.6572 10.536 56.6972 10.536C55.7532 10.536 55.0652 10.864 54.6332 11.52C54.2172 12.16 54.0092 13.128 54.0092 14.424Z" fill="white"/>
<path d="M69.5886 21H66.0126V2.76001H69.5886V21Z" fill="white"/>
<path d="M85.3491 7.89601V21H82.6131L82.1331 19.32H81.9411C81.5251 19.992 80.9491 20.48 80.2131 20.784C79.4931 21.088 78.7251 21.24 77.9091 21.24C76.5011 21.24 75.3731 20.864 74.5251 20.112C73.6771 19.344 73.2531 18.12 73.2531 16.44V7.89601H76.8291V15.552C76.8291 16.48 76.9971 17.184 77.3331 17.664C77.6691 18.144 78.2051 18.384 78.9411 18.384C80.0291 18.384 80.7731 18.016 81.1731 17.28C81.5731 16.528 81.7731 15.456 81.7731 14.064V7.89601H85.3491Z" fill="white"/>
<path d="M104.483 7.65601C105.971 7.65601 107.091 8.04001 107.843 8.80801C108.611 9.56001 108.995 10.776 108.995 12.456V21H105.419V13.344C105.419 11.456 104.763 10.512 103.451 10.512C102.507 10.512 101.835 10.848 101.435 11.52C101.035 12.192 100.835 13.16 100.835 14.424V21H97.2586V13.344C97.2586 11.456 96.6026 10.512 95.2906 10.512C94.2986 10.512 93.6106 10.888 93.2266 11.64C92.8586 12.376 92.6746 13.44 92.6746 14.832V21H89.0986V7.89601H91.8346L92.3146 9.57601H92.5066C92.9066 8.90401 93.4506 8.41601 94.1386 8.11201C94.8426 7.80801 95.5706 7.65601 96.3226 7.65601C97.2826 7.65601 98.0986 7.81601 98.7706 8.13601C99.4426 8.44001 99.9546 8.92001 100.307 9.57601H100.619C101.019 8.90401 101.571 8.41601 102.275 8.11201C102.995 7.80801 103.731 7.65601 104.483 7.65601Z" fill="white"/>
<path d="M116.253 7.00801C116.253 7.50401 116.237 7.99201 116.205 8.47201C116.173 8.95201 116.141 9.32801 116.109 9.60001H116.253C116.605 9.05601 117.077 8.60001 117.669 8.23201C118.261 7.84801 119.029 7.65601 119.973 7.65601C121.445 7.65601 122.637 8.23201 123.549 9.38401C124.461 10.52 124.917 12.2 124.917 14.424C124.917 16.664 124.453 18.36 123.525 19.512C122.597 20.664 121.381 21.24 119.877 21.24C118.917 21.24 118.157 21.072 117.597 20.736C117.053 20.384 116.605 19.992 116.253 19.56H116.013L115.413 21H112.677V2.76001H116.253V7.00801ZM118.821 10.512C117.893 10.512 117.237 10.8 116.853 11.376C116.485 11.952 116.285 12.832 116.253 14.016V14.4C116.253 15.664 116.437 16.64 116.805 17.328C117.189 18 117.877 18.336 118.869 18.336C119.605 18.336 120.189 18 120.621 17.328C121.053 16.64 121.269 15.656 121.269 14.376C121.269 13.096 121.045 12.136 120.597 11.496C120.165 10.84 119.573 10.512 118.821 10.512Z" fill="white"/>
<path d="M139.888 7.89601V21H137.152L136.672 19.32H136.48C136.064 19.992 135.488 20.48 134.752 20.784C134.032 21.088 133.264 21.24 132.448 21.24C131.04 21.24 129.912 20.864 129.064 20.112C128.216 19.344 127.792 18.12 127.792 16.44V7.89601H131.368V15.552C131.368 16.48 131.536 17.184 131.872 17.664C132.208 18.144 132.744 18.384 133.48 18.384C134.568 18.384 135.312 18.016 135.712 17.28C136.112 16.528 136.312 15.456 136.312 14.064V7.89601H139.888Z" fill="white"/>
<path d="M152.782 17.112C152.782 18.44 152.31 19.464 151.366 20.184C150.438 20.888 149.046 21.24 147.19 21.24C146.278 21.24 145.494 21.176 144.838 21.048C144.182 20.936 143.526 20.744 142.87 20.472V17.52C143.574 17.84 144.334 18.104 145.15 18.312C145.966 18.52 146.686 18.624 147.31 18.624C148.014 18.624 148.51 18.52 148.798 18.312C149.102 18.104 149.254 17.832 149.254 17.496C149.254 17.272 149.19 17.072 149.062 16.896C148.95 16.72 148.694 16.52 148.294 16.296C147.894 16.072 147.27 15.784 146.422 15.432C145.606 15.08 144.934 14.736 144.406 14.4C143.878 14.048 143.486 13.632 143.23 13.152C142.974 12.656 142.846 12.04 142.846 11.304C142.846 10.088 143.318 9.17601 144.262 8.56801C145.206 7.96001 146.462 7.65601 148.03 7.65601C148.846 7.65601 149.622 7.73601 150.358 7.89601C151.094 8.05601 151.854 8.32001 152.638 8.68801L151.558 11.256C150.918 10.984 150.31 10.76 149.734 10.584C149.158 10.392 148.574 10.296 147.982 10.296C146.926 10.296 146.398 10.584 146.398 11.16C146.398 11.368 146.462 11.56 146.59 11.736C146.734 11.896 146.998 12.072 147.382 12.264C147.782 12.456 148.366 12.712 149.134 13.032C149.886 13.336 150.534 13.656 151.078 13.992C151.622 14.312 152.038 14.72 152.326 15.216C152.63 15.696 152.782 16.328 152.782 17.112Z" fill="white"/>
<defs>
<linearGradient id="paint0_linear_4_136" x1="6" y1="0" x2="6" y2="24" gradientUnits="userSpaceOnUse">
<stop offset="0.192708" stop-color="#000225"/>
<stop offset="1" stop-color="white"/>
</linearGradient>
<linearGradient id="paint1_linear_4_136" x1="18" y1="0" x2="18" y2="24" gradientUnits="userSpaceOnUse">
<stop stop-color="white"/>
<stop offset="0.848958" stop-color="#000225"/>
</linearGradient>
</defs>
</svg>
