<svg width="195" height="32" viewBox="0 0 195 32" fill="none" xmlns="http://www.w3.org/2000/svg">
<path d="M0 16C0 24.8366 7.16344 32 16 32V0C7.16344 0 0 7.16344 0 16Z" fill="url(#paint0_linear_4_84)"/>
<path d="M32 16C32 24.8366 24.8366 32 16 32V0C24.8366 0 32 7.16344 32 16Z" fill="url(#paint1_linear_4_84)"/>
<path d="M52.4416 9.04935C50.6338 9.04935 49.2519 9.72468 48.2961 11.0753C47.3403 12.426 46.8623 14.2753 46.8623 16.6234C46.8623 18.9922 47.2987 20.8312 48.1714 22.1403C49.0649 23.4286 50.4883 24.0727 52.4416 24.0727C53.3558 24.0727 54.2597 23.9688 55.1532 23.761C56.0675 23.5532 57.0545 23.2623 58.1143 22.8883V26.8468C57.1377 27.2416 56.1714 27.5325 55.2156 27.7195C54.2597 27.9065 53.1896 28 52.0052 28C49.7195 28 47.8286 27.5325 46.3325 26.5974C44.8571 25.6416 43.7662 24.3117 43.0597 22.6078C42.3532 20.8831 42 18.8779 42 16.5922C42 14.3481 42.4052 12.3636 43.2156 10.639C44.026 8.91428 45.2 7.56364 46.7377 6.58701C48.2961 5.61039 50.1974 5.12208 52.4416 5.12208C53.5429 5.12208 54.6442 5.26753 55.7455 5.55844C56.8675 5.82857 57.9377 6.2026 58.9558 6.68052L57.4286 10.5143C56.5974 10.1195 55.7558 9.77662 54.9039 9.48571C54.0727 9.1948 53.2519 9.04935 52.4416 9.04935Z" fill="white"/>
<path d="M77.9289 19.1481C77.9289 21.974 77.1808 24.1558 75.6847 25.6935C74.2094 27.2312 72.1938 28 69.638 28C68.0588 28 66.6458 27.6571 65.399 26.9714C64.173 26.2857 63.2068 25.2883 62.5003 23.9792C61.7938 22.6494 61.4406 21.039 61.4406 19.1481C61.4406 16.3221 62.1782 14.1507 63.6536 12.6338C65.1289 11.1169 67.1549 10.3584 69.7315 10.3584C71.3315 10.3584 72.7445 10.7013 73.9704 11.387C75.1964 12.0727 76.1627 13.0701 76.8692 14.3792C77.5756 15.6675 77.9289 17.2571 77.9289 19.1481ZM66.1782 19.1481C66.1782 20.8312 66.4484 22.1091 66.9886 22.9818C67.5497 23.8338 68.4536 24.2597 69.7003 24.2597C70.9263 24.2597 71.8094 23.8338 72.3497 22.9818C72.9107 22.1091 73.1912 20.8312 73.1912 19.1481C73.1912 17.4649 72.9107 16.2078 72.3497 15.3766C71.8094 14.5247 70.9159 14.0987 69.6692 14.0987C68.4432 14.0987 67.5497 14.5247 66.9886 15.3766C66.4484 16.2078 66.1782 17.4649 66.1782 19.1481Z" fill="white"/>
<path d="M86.4112 27.6883H81.767V4H86.4112V27.6883Z" fill="white"/>
<path d="M106.879 10.6701V27.6883H103.326L102.703 25.5065H102.453C101.913 26.3792 101.165 27.013 100.209 27.4078C99.2742 27.8026 98.2768 28 97.217 28C95.3885 28 93.9235 27.5117 92.8222 26.5351C91.7209 25.5377 91.1703 23.948 91.1703 21.7662V10.6701H95.8144V20.613C95.8144 21.8182 96.0326 22.7325 96.469 23.3558C96.9054 23.9792 97.6015 24.2909 98.5573 24.2909C99.9703 24.2909 100.937 23.813 101.456 22.8571C101.975 21.8805 102.235 20.4883 102.235 18.6805V10.6701H106.879Z" fill="white"/>
<path d="M131.728 10.3584C133.66 10.3584 135.115 10.8571 136.092 11.8545C137.089 12.8312 137.588 14.4104 137.588 16.5922V27.6883H132.944V17.7455C132.944 15.2935 132.092 14.0675 130.388 14.0675C129.162 14.0675 128.289 14.5039 127.77 15.3766C127.25 16.2494 126.99 17.5065 126.99 19.1481V27.6883H122.346V17.7455C122.346 15.2935 121.494 14.0675 119.79 14.0675C118.502 14.0675 117.609 14.5558 117.11 15.5325C116.632 16.4883 116.393 17.8701 116.393 19.6779V27.6883H111.749V10.6701H115.302L115.925 12.8519H116.175C116.694 11.9792 117.401 11.3455 118.294 10.9506C119.209 10.5558 120.154 10.3584 121.131 10.3584C122.377 10.3584 123.437 10.5662 124.31 10.9818C125.183 11.3766 125.847 12 126.305 12.8519H126.71C127.229 11.9792 127.946 11.3455 128.86 10.9506C129.796 10.5558 130.751 10.3584 131.728 10.3584Z" fill="white"/>
<path d="M147.014 9.51688C147.014 10.161 146.993 10.7948 146.952 11.4182C146.91 12.0416 146.868 12.5299 146.827 12.8831H147.014C147.471 12.1766 148.084 11.5844 148.853 11.1065C149.622 10.6078 150.619 10.3584 151.845 10.3584C153.757 10.3584 155.305 11.1065 156.489 12.6026C157.674 14.0779 158.266 16.2597 158.266 19.1481C158.266 22.0571 157.663 24.2597 156.458 25.7558C155.253 27.2519 153.674 28 151.72 28C150.474 28 149.487 27.7818 148.759 27.3455C148.053 26.8883 147.471 26.3792 147.014 25.8182H146.702L145.923 27.6883H142.37V4H147.014V9.51688ZM150.349 14.0675C149.144 14.0675 148.292 14.4416 147.793 15.1896C147.315 15.9377 147.055 17.0805 147.014 18.6182V19.1169C147.014 20.7584 147.253 22.026 147.731 22.9195C148.229 23.7922 149.123 24.2286 150.411 24.2286C151.367 24.2286 152.126 23.7922 152.687 22.9195C153.248 22.026 153.528 20.7481 153.528 19.0857C153.528 17.4234 153.237 16.1766 152.655 15.3455C152.094 14.4935 151.326 14.0675 150.349 14.0675Z" fill="white"/>
<path d="M177.709 10.6701V27.6883H174.156L173.533 25.5065H173.283C172.743 26.3792 171.995 27.013 171.039 27.4078C170.104 27.8026 169.107 28 168.047 28C166.218 28 164.753 27.5117 163.652 26.5351C162.551 25.5377 162 23.948 162 21.7662V10.6701H166.644V20.613C166.644 21.8182 166.863 22.7325 167.299 23.3558C167.735 23.9792 168.431 24.2909 169.387 24.2909C170.8 24.2909 171.766 23.813 172.286 22.8571C172.805 21.8805 173.065 20.4883 173.065 18.6805V10.6701H177.709Z" fill="white"/>
<path d="M194.454 22.639C194.454 24.3636 193.841 25.6935 192.615 26.6286C191.41 27.5429 189.602 28 187.192 28C186.007 28 184.989 27.9169 184.137 27.7506C183.285 27.6052 182.433 27.3558 181.581 27.0026V23.1688C182.496 23.5844 183.483 23.9273 184.542 24.1974C185.602 24.4675 186.537 24.6026 187.348 24.6026C188.262 24.6026 188.906 24.4675 189.28 24.1974C189.675 23.9273 189.872 23.574 189.872 23.1377C189.872 22.8467 189.789 22.587 189.623 22.3584C189.477 22.1299 189.145 21.8701 188.625 21.5792C188.106 21.2883 187.296 20.9143 186.194 20.4571C185.135 20 184.262 19.5532 183.576 19.1169C182.89 18.6597 182.381 18.1195 182.049 17.4961C181.716 16.8519 181.55 16.0519 181.55 15.0961C181.55 13.5169 182.163 12.3325 183.389 11.5429C184.615 10.7532 186.246 10.3584 188.283 10.3584C189.342 10.3584 190.35 10.4623 191.306 10.6701C192.262 10.8779 193.249 11.2208 194.267 11.6987L192.864 15.0338C192.033 14.6805 191.244 14.3896 190.496 14.161C189.748 13.9117 188.989 13.787 188.22 13.787C186.849 13.787 186.163 14.161 186.163 14.9091C186.163 15.1792 186.246 15.4286 186.412 15.6571C186.599 15.8649 186.942 16.0935 187.441 16.3429C187.961 16.5922 188.719 16.9247 189.716 17.3403C190.693 17.7351 191.535 18.1506 192.241 18.587C192.948 19.0026 193.488 19.5325 193.862 20.1766C194.257 20.8 194.454 21.6208 194.454 22.639Z" fill="white"/>
<defs>
<linearGradient id="paint0_linear_4_84" x1="8" y1="0" x2="8" y2="32" gradientUnits="userSpaceOnUse">
<stop offset="0.192708" stop-color="#000225"/>
<stop offset="1" stop-color="white"/>
</linearGradient>
<linearGradient id="paint1_linear_4_84" x1="24" y1="0" x2="24" y2="32" gradientUnits="userSpaceOnUse">
<stop stop-color="white"/>
<stop offset="0.848958" stop-color="#000225"/>
</linearGradient>
</defs>
</svg>
