<svg width="20" height="20" viewBox="0 0 20 20" fill="none" xmlns="http://www.w3.org/2000/svg">
<path d="M2.7691 17.7619H17.2225C18.1399 17.7619 18.8321 17.5312 19.2993 17.0696C19.7664 16.6081 20 15.9271 20 15.0266V4.74377C20 3.84325 19.7664 3.16223 19.2993 2.70072C18.8321 2.23357 18.1399 2 17.2225 2H2.7691C1.85732 2 1.16786 2.23357 0.700718 2.70072C0.233573 3.16223 0 3.84325 0 4.74377V15.0266C0 15.9271 0.233573 16.6081 0.700718 17.0696C1.16786 17.5312 1.85732 17.7619 2.7691 17.7619ZM2.87041 16.1072C2.47643 16.1072 2.17532 16.0059 1.96707 15.8033C1.76446 15.595 1.66315 15.2883 1.66315 14.8831V4.88729C1.66315 4.48206 1.76446 4.17813 1.96707 3.97552C2.17532 3.76727 2.47643 3.66315 2.87041 3.66315H17.1296C17.5179 3.66315 17.8162 3.76727 18.0245 3.97552C18.2327 4.17813 18.3369 4.48206 18.3369 4.88729V14.8831C18.3369 15.2883 18.2327 15.595 18.0245 15.8033C17.8162 16.0059 17.5179 16.1072 17.1296 16.1072H2.87041ZM1.67159 10.6534H3.69776C3.87787 10.6534 4.01576 10.614 4.11144 10.5352C4.21275 10.4508 4.29717 10.3326 4.36471 10.1807L5.31026 7.86745L7.13381 13.7265C7.18447 13.8897 7.28859 13.9994 7.44618 14.0557C7.6094 14.112 7.7698 14.1092 7.9274 14.0473C8.09061 13.9854 8.20037 13.87 8.25665 13.7011L9.21908 10.6534H11.1102C11.2903 10.6534 11.4282 10.614 11.5238 10.5352C11.6252 10.4508 11.7096 10.3326 11.7771 10.1807L12.7733 7.85901L14.5884 13.7265C14.6447 13.8897 14.7517 13.9994 14.9092 14.0557C15.0725 14.112 15.2329 14.1092 15.3905 14.0473C15.5537 13.9854 15.6634 13.87 15.7197 13.7011L16.6821 10.6534H18.3453V9.47995H16.3444C16.018 9.47995 15.7985 9.64035 15.6859 9.96116L15.1541 11.4555L13.3221 5.95103C13.2771 5.78219 13.1786 5.67244 13.0266 5.62178C12.8746 5.5655 12.7199 5.5655 12.5623 5.62178C12.4047 5.67806 12.2893 5.79344 12.2161 5.96792L10.7725 9.47995H8.88983C8.55776 9.47995 8.33826 9.64035 8.23132 9.96116L7.69101 11.4555L5.8759 5.95103C5.81961 5.78219 5.71549 5.67244 5.56353 5.62178C5.41157 5.5655 5.25679 5.5655 5.0992 5.62178C4.94161 5.67806 4.82623 5.79344 4.75306 5.96792L3.31786 9.47995H1.67159V10.6534Z" />
</svg>
