<svg width="20" height="20" viewBox="0 0 20 20" fill="none" xmlns="http://www.w3.org/2000/svg">
<path d="M13.0933 11.1349H7.00739C6.85219 11.1349 6.72194 11.1848 6.61663 11.2845C6.51686 11.3843 6.46697 11.509 6.46697 11.6587C6.46697 11.8083 6.51686 11.9358 6.61663 12.0411C6.72194 12.1409 6.85219 12.1908 7.00739 12.1908H13.0933C13.243 12.1908 13.3677 12.1409 13.4674 12.0411C13.5672 11.9358 13.6171 11.8083 13.6171 11.6587C13.6171 11.509 13.5672 11.3843 13.4674 11.2845C13.3677 11.1848 13.243 11.1349 13.0933 11.1349ZM13.0933 13.9201H7.00739C6.85219 13.9201 6.72194 13.9727 6.61663 14.0781C6.51686 14.1834 6.46697 14.3109 6.46697 14.4605C6.46697 14.6046 6.51686 14.7266 6.61663 14.8263C6.72194 14.9261 6.85219 14.976 7.00739 14.976H13.0933C13.243 14.976 13.3677 14.9261 13.4674 14.8263C13.5672 14.7266 13.6171 14.6046 13.6171 14.4605C13.6171 14.3109 13.5672 14.1834 13.4674 14.0781C13.3677 13.9727 13.243 13.9201 13.0933 13.9201ZM5.70208 19H14.5566C15.449 19 16.1224 18.7672 16.5769 18.3016C17.0314 17.8416 17.2587 17.1654 17.2587 16.273V8.7321C17.2587 8.34411 17.2365 8.01709 17.1921 7.75104C17.1478 7.47945 17.0619 7.23279 16.9344 7.01109C16.8125 6.78383 16.6296 6.54827 16.3857 6.30439L12.0291 1.87298C11.7963 1.63464 11.5691 1.4545 11.3473 1.33256C11.1256 1.20508 10.8845 1.11917 10.624 1.07483C10.3635 1.02494 10.0587 1 9.70947 1H5.70208C4.8097 1 4.13626 1.23279 3.68176 1.69838C3.22725 2.15843 3 2.83464 3 3.72702V16.273C3 17.1709 3.22725 17.8499 3.68176 18.3099C4.13626 18.77 4.8097 19 5.70208 19ZM5.8351 17.3621C5.43603 17.3621 5.13672 17.2596 4.93718 17.0545C4.73764 16.8494 4.63788 16.5557 4.63788 16.1732V3.8351C4.63788 3.45266 4.73764 3.15612 4.93718 2.9455C5.13672 2.73487 5.4388 2.62956 5.84342 2.62956H9.38522V7.18568C9.38522 7.77875 9.52933 8.22217 9.81755 8.51594C10.1113 8.8097 10.5547 8.95658 11.1478 8.95658H15.6291V16.1732C15.6291 16.5557 15.5293 16.8494 15.3298 17.0545C15.1303 17.2596 14.8282 17.3621 14.4236 17.3621H5.8351ZM11.3058 7.51824C11.1339 7.51824 11.0092 7.47945 10.9316 7.40185C10.8596 7.32425 10.8236 7.19954 10.8236 7.02771V2.85404L15.4046 7.51824H11.3058Z" fill="white"/>
</svg>
