<svg width="20" height="20" viewBox="0 0 20 20" fill="none" xmlns="http://www.w3.org/2000/svg">
<path d="M15.7812 12.7578L15.7734 4.91406C15.7734 4.64323 15.6901 4.42448 15.5234 4.25781C15.362 4.08594 15.1406 4 14.8594 4H7.01562C6.75521 4 6.54167 4.08594 6.375 4.25781C6.20833 4.42969 6.125 4.63021 6.125 4.85938C6.125 5.08854 6.21094 5.28646 6.38281 5.45312C6.55469 5.61458 6.75781 5.69531 6.99219 5.69531H9.77344L13.1328 5.57812L11.7109 6.82812L4.28125 14.2812C4.09375 14.4688 4 14.6745 4 14.8984C4 15.0495 4.04167 15.1927 4.125 15.3281C4.20833 15.4635 4.3151 15.5703 4.44531 15.6484C4.58073 15.7318 4.72656 15.7734 4.88281 15.7734C5.11198 15.7734 5.31771 15.6849 5.5 15.5078L12.9453 8.0625L14.2109 6.64062L14.0859 9.85938V12.7812C14.0859 13.0156 14.1667 13.2214 14.3281 13.3984C14.4896 13.5703 14.6875 13.6562 14.9219 13.6562C15.151 13.6562 15.3516 13.5703 15.5234 13.3984C15.6953 13.2266 15.7812 13.013 15.7812 12.7578Z" />
</svg>
