<svg width="20" height="20" viewBox="0 0 20 20" fill="none" xmlns="http://www.w3.org/2000/svg">
<path d="M4.81093 18H15.1891C16.1146 18 16.8145 17.7629 17.2887 17.2887C17.7629 16.8202 18 16.1289 18 15.2148V4.78522C18 3.86538 17.7629 3.17122 17.2887 2.70273C16.8145 2.23424 16.1146 2 15.1891 2H4.81093C3.88538 2 3.1855 2.23424 2.7113 2.70273C2.2371 3.17122 2 3.86538 2 4.78522V15.2148C2 16.1289 2.2371 16.8202 2.7113 17.2887C3.1855 17.7629 3.88538 18 4.81093 18ZM4.91377 16.3117C4.51384 16.3117 4.20818 16.2089 3.99679 16.0032C3.79111 15.7975 3.68827 15.4862 3.68827 15.0691V4.92234C3.68827 4.51098 3.79111 4.20246 3.99679 3.99679C4.20818 3.79111 4.51384 3.68827 4.91377 3.68827H15.0862C15.4804 3.68827 15.7833 3.79111 15.9946 3.99679C16.206 4.20246 16.3117 4.51098 16.3117 4.92234V15.0691C16.3117 15.4862 16.206 15.7975 15.9946 16.0032C15.7833 16.2089 15.4804 16.3117 15.0862 16.3117H4.91377ZM7.81896 14.135C8.20746 14.135 8.44171 13.9464 8.52169 13.5694L8.87306 11.8982H10.3042L9.98715 13.4065C9.94715 13.6065 9.98429 13.7779 10.0986 13.9207C10.2128 14.0636 10.3728 14.135 10.5785 14.135C10.9784 14.135 11.2184 13.9436 11.2983 13.5608L11.6411 11.8897H12.4296C12.6181 11.8897 12.7752 11.8297 12.9009 11.7097C13.0266 11.584 13.0894 11.4269 13.0894 11.2384C13.0894 11.067 13.0352 10.9298 12.9266 10.827C12.8238 10.7184 12.6924 10.6642 12.5324 10.6642H11.8982L12.2239 9.11302H13.0123C13.2066 9.11302 13.3637 9.05017 13.4837 8.92448C13.6094 8.79879 13.6722 8.64453 13.6722 8.4617C13.6722 8.29031 13.6208 8.15319 13.5179 8.05035C13.4151 7.9418 13.2837 7.88752 13.1237 7.88752H12.4724L12.7638 6.46492C12.7981 6.26495 12.7552 6.09641 12.6352 5.95929C12.5153 5.81646 12.3582 5.74505 12.1639 5.74505C11.7697 5.74505 11.5354 5.93358 11.4612 6.31066L11.1355 7.88752H9.69577L9.98715 6.46492C10.0329 6.27067 9.99571 6.10212 9.87574 5.95929C9.75576 5.81646 9.59579 5.74505 9.39582 5.74505C9.00161 5.74505 8.76736 5.93358 8.69309 6.31066L8.36743 7.88752H7.579C7.38475 7.88752 7.22478 7.95037 7.09909 8.07606C6.97911 8.20175 6.91912 8.35886 6.91912 8.5474C6.91912 8.71309 6.97054 8.85021 7.07338 8.95876C7.17622 9.0616 7.30762 9.11302 7.46759 9.11302H8.11034L7.79325 10.6642H6.99625C6.802 10.6642 6.64203 10.727 6.51634 10.8527C6.39636 10.9784 6.33637 11.1355 6.33637 11.324C6.33637 11.4897 6.38779 11.6269 6.49063 11.7354C6.59347 11.8382 6.72487 11.8897 6.88484 11.8897H7.53615L7.21907 13.4065C7.18479 13.6065 7.22764 13.7779 7.34762 13.9207C7.46759 14.0636 7.62471 14.135 7.81896 14.135ZM9.02732 10.8099L9.38725 9.01018H10.9984L10.6299 10.8099H9.02732Z" />
</svg>
