<svg width="64" height="78" viewBox="0 0 64 78" fill="none" xmlns="http://www.w3.org/2000/svg">
<path fill-rule="evenodd" clip-rule="evenodd" d="M63.7395 18.7598C63.7395 18.8079 63.7643 18.8527 63.8051 18.8782L63.8697 18.9186C63.9508 18.9692 64 19.0581 64 19.1536V53.6792C64 55.6214 64 56.5926 63.7255 57.4686C63.4825 58.244 63.0846 58.9619 62.5559 59.5789C61.9585 60.2759 61.135 60.7906 59.488 61.82L37.088 75.82C35.2422 76.9736 34.3193 77.5505 33.3295 77.7754C32.4543 77.9742 31.5457 77.9742 30.6705 77.7754C29.6807 77.5505 28.7578 76.9736 26.912 75.82L4.51201 61.82C2.86501 60.7906 2.04151 60.2759 1.44412 59.5789C0.915379 58.9619 0.517466 58.244 0.274507 57.4686C0 56.5926 0 55.6214 0 53.6792V24.3208C0 22.3786 0 21.4074 0.274507 20.5314C0.517466 19.756 0.915379 19.0381 1.44412 18.4211C2.04151 17.7241 2.86501 17.2094 4.51201 16.18L26.912 2.17999C28.7578 1.02636 29.6807 0.449548 30.6705 0.22464C31.5457 0.025768 32.4543 0.025768 33.3295 0.22464C34.3193 0.449548 35.2422 1.02636 37.088 2.17999L63.409 18.6306C63.4507 18.6567 63.5037 18.656 63.5447 18.6289V18.6289C63.6282 18.5737 63.7395 18.6335 63.7395 18.7335V18.7598ZM43.8841 16.4276C47.3474 18.5921 49.079 19.6744 49.8284 20.9891C50.8507 22.7826 50.8793 24.9757 49.9039 26.7952C49.1889 28.1289 47.486 29.2558 44.0802 31.5096V31.5096C40.6431 33.7841 38.9245 34.9214 38.2091 36.2634C37.2332 38.0943 37.2724 40.2994 38.3127 42.0944C39.0753 43.4102 40.8332 44.4857 44.349 46.6366L55.8992 53.7032C55.9618 53.7415 56 53.8097 56 53.8831V53.8831C56 53.9558 55.9625 54.0234 55.9009 54.062L37.088 65.82C35.2422 66.9736 34.3193 67.5505 33.3295 67.7754C32.4543 67.9742 31.5457 67.9742 30.6705 67.7754C29.6807 67.5505 28.7578 66.9736 26.912 65.82L12.512 56.82C10.865 55.7906 10.0415 55.2759 9.44412 54.5789C8.91538 53.9619 8.51747 53.244 8.27451 52.4686C8 51.5926 8 50.6214 8 48.6792V29.3208C8 27.3786 8 26.4074 8.27451 25.5314C8.51747 24.756 8.91538 24.0381 9.44412 23.4211C10.0415 22.7241 10.865 22.2094 12.512 21.18L26.912 12.18C28.7578 11.0264 29.6807 10.4495 30.6705 10.2246C31.5457 10.0258 32.4543 10.0258 33.3295 10.2246C34.3193 10.4495 35.2422 11.0264 37.088 12.18L43.8841 16.4276Z" fill="#37ABFF"/>
</svg>
