<svg width="48" height="60" viewBox="0 0 48 60" fill="none" xmlns="http://www.w3.org/2000/svg">
<path fill-rule="evenodd" clip-rule="evenodd" d="M47.8046 14.8198C47.8046 14.8559 47.8232 14.8895 47.8538 14.9086L47.9023 14.9389C47.9631 14.9769 48 15.0435 48 15.1152V41.4528C48 42.7476 48 43.395 47.817 43.9791C47.655 44.496 47.3897 44.9746 47.0373 45.3859C46.639 45.8506 46.09 46.1938 44.992 46.88L27.392 57.88C26.1615 58.6491 25.5462 59.0336 24.8863 59.1836C24.3029 59.3162 23.6971 59.3162 23.1137 59.1836C22.4538 59.0336 21.8385 58.6491 20.608 57.88L3.00801 46.88C1.91001 46.1938 1.36101 45.8506 0.962743 45.3859C0.610253 44.9746 0.344978 44.496 0.183005 43.9791C0 43.395 0 42.7476 0 41.4528V18.5472C0 17.2524 0 16.605 0.183005 16.0209C0.344978 15.504 0.610253 15.0254 0.962743 14.6141C1.36101 14.1494 1.91001 13.8062 3.00801 13.12L20.608 2.12C21.8385 1.35091 22.4538 0.966366 23.1137 0.816427C23.6971 0.683845 24.3029 0.683845 24.8863 0.816426C25.5462 0.966365 26.1615 1.35091 27.392 2.11999L47.5567 14.723C47.588 14.7425 47.6278 14.742 47.6586 14.7216V14.7216C47.7211 14.6802 47.8046 14.7251 47.8046 14.8001V14.8198ZM33.342 13.3387C36.1503 15.0939 37.5544 15.9715 38.0502 17.104C38.4835 18.0936 38.4981 19.2163 38.0907 20.2167C37.6245 21.3617 36.2436 22.2755 33.4819 24.1031L32.6339 24.6643C29.8468 26.5086 28.4532 27.4308 27.9879 28.583C27.5814 29.5895 27.6015 30.7181 28.0435 31.7095C28.5494 32.8444 29.9749 33.7165 32.8258 35.4607L41.9244 41.0274C41.9713 41.0561 42 41.1073 42 41.1623V41.1623C42 41.2169 41.9719 41.2676 41.9256 41.2965L27.392 50.38C26.1615 51.1491 25.5462 51.5336 24.8863 51.6836C24.3029 51.8162 23.6971 51.8162 23.1137 51.6836C22.4538 51.5336 21.8385 51.1491 20.608 50.38L9.00801 43.13C7.91001 42.4438 7.36101 42.1006 6.96274 41.6359C6.61025 41.2246 6.34498 40.746 6.183 40.2291C6 39.645 6 38.9976 6 37.7028V22.2972C6 21.0024 6 20.355 6.183 19.7709C6.34498 19.254 6.61025 18.7754 6.96274 18.3641C7.36101 17.8994 7.91001 17.5562 9.00801 16.87L20.608 9.62C21.8385 8.85091 22.4538 8.46637 23.1137 8.31643C23.6971 8.18385 24.3029 8.18385 24.8863 8.31643C25.5462 8.46637 26.1615 8.85091 27.392 9.62L33.342 13.3387Z" fill="white"/>
</svg>
