<svg width="160" height="32" viewBox="0 0 160 32" fill="none" xmlns="http://www.w3.org/2000/svg">
<path d="M13.5111 32C10.7259 32 8.34074 31.5407 6.35556 30.6222C4.4 29.6741 2.87407 28.3111 1.77778 26.5333C0.711111 24.7259 0.133333 22.5481 0.0444443 20C0.0148147 18.7259 0 17.363 0 15.9111C0 14.4593 0.0148147 13.0815 0.0444443 11.7778C0.133333 9.28889 0.711111 7.17037 1.77778 5.42222C2.87407 3.67408 4.41482 2.34074 6.4 1.42222C8.41482 0.474074 10.7852 0 13.5111 0C15.7037 0 17.6296 0.281482 19.2889 0.844444C20.9481 1.40741 22.3407 2.14815 23.4667 3.06667C24.5926 3.95556 25.4519 4.93333 26.0444 6C26.637 7.06667 26.9481 8.08889 26.9778 9.06667C26.9778 9.33333 26.8889 9.57037 26.7111 9.77778C26.5333 9.95556 26.2963 10.0444 26 10.0444H20.4889C20.1926 10.0444 19.9556 9.98519 19.7778 9.86667C19.6296 9.74815 19.4963 9.57037 19.3778 9.33333C19.1704 8.8 18.8296 8.26667 18.3556 7.73333C17.9111 7.17037 17.3037 6.6963 16.5333 6.31111C15.763 5.92593 14.7556 5.73333 13.5111 5.73333C11.6444 5.73333 10.163 6.22222 9.06667 7.2C8 8.17778 7.42222 9.77778 7.33333 12C7.24444 14.5481 7.24444 17.1407 7.33333 19.7778C7.42222 22.0889 8.01482 23.7481 9.11111 24.7556C10.237 25.763 11.7333 26.2667 13.6 26.2667C14.8148 26.2667 15.8963 26.0593 16.8444 25.6444C17.8222 25.2 18.5926 24.5185 19.1556 23.6C19.7185 22.6815 20 21.5111 20 20.0889V18.9778H15.1556C14.8593 18.9778 14.6074 18.8741 14.4 18.6667C14.1926 18.4296 14.0889 18.163 14.0889 17.8667V15.0222C14.0889 14.6963 14.1926 14.4296 14.4 14.2222C14.6074 14.0148 14.8593 13.9111 15.1556 13.9111H26.0444C26.3704 13.9111 26.637 14.0148 26.8444 14.2222C27.0519 14.4296 27.1556 14.6963 27.1556 15.0222V19.8667C27.1556 22.4148 26.5926 24.5926 25.4667 26.4C24.3704 28.2074 22.7852 29.6 20.7111 30.5778C18.6667 31.5259 16.2667 32 13.5111 32Z" fill="white"/>
<path d="M44.9316 32C42.2353 32 39.9094 31.5556 37.9538 30.6667C35.9983 29.7778 34.4723 28.4444 33.376 26.6667C32.2797 24.8593 31.6872 22.5926 31.5983 19.8667C31.5686 18.5926 31.5538 17.3333 31.5538 16.0889C31.5538 14.8148 31.5686 13.5259 31.5983 12.2222C31.6872 9.55556 32.2797 7.31852 33.376 5.51111C34.502 3.67408 36.0427 2.2963 37.9983 1.37778C39.9834 0.45926 42.2946 0 44.9316 0C47.539 0 49.8205 0.45926 51.776 1.37778C53.7612 2.2963 55.3168 3.67408 56.4427 5.51111C57.5686 7.31852 58.1612 9.55556 58.2205 12.2222C58.2798 13.5259 58.3094 14.8148 58.3094 16.0889C58.3094 17.3333 58.2798 18.5926 58.2205 19.8667C58.1316 22.5926 57.539 24.8593 56.4427 26.6667C55.3464 28.4444 53.8205 29.7778 51.8649 30.6667C49.9094 31.5556 47.5983 32 44.9316 32ZM44.9316 26.2667C46.6501 26.2667 48.0575 25.7481 49.1538 24.7111C50.2798 23.6444 50.8723 21.9556 50.9316 19.6444C50.9909 18.3407 51.0205 17.1259 51.0205 16C51.0205 14.8444 50.9909 13.6296 50.9316 12.3556C50.902 10.8148 50.6205 9.55556 50.0872 8.57778C49.5538 7.6 48.8427 6.88889 47.9538 6.44445C47.0946 5.97037 46.0872 5.73333 44.9316 5.73333C43.776 5.73333 42.7538 5.97037 41.8649 6.44445C40.976 6.88889 40.2649 7.6 39.7316 8.57778C39.2279 9.55556 38.9464 10.8148 38.8872 12.3556C38.8575 13.6296 38.8427 14.8444 38.8427 16C38.8427 17.1259 38.8575 18.3407 38.8872 19.6444C38.976 21.9556 39.5686 23.6444 40.6649 24.7111C41.7612 25.7481 43.1835 26.2667 44.9316 26.2667Z" fill="white"/>
<path d="M76.1816 32C73.4853 32 71.1594 31.5556 69.2038 30.6667C67.2483 29.7778 65.7223 28.4444 64.626 26.6667C63.5297 24.8593 62.9372 22.5926 62.8483 19.8667C62.8186 18.5926 62.8038 17.3333 62.8038 16.0889C62.8038 14.8148 62.8186 13.5259 62.8483 12.2222C62.9372 9.55556 63.5297 7.31852 64.626 5.51111C65.752 3.67408 67.2927 2.2963 69.2483 1.37778C71.2335 0.45926 73.5446 0 76.1816 0C78.789 0 81.0705 0.45926 83.026 1.37778C85.0112 2.2963 86.5668 3.67408 87.6927 5.51111C88.8186 7.31852 89.4112 9.55556 89.4705 12.2222C89.5298 13.5259 89.5594 14.8148 89.5594 16.0889C89.5594 17.3333 89.5298 18.5926 89.4705 19.8667C89.3816 22.5926 88.789 24.8593 87.6927 26.6667C86.5964 28.4444 85.0705 29.7778 83.1149 30.6667C81.1594 31.5556 78.8483 32 76.1816 32ZM76.1816 26.2667C77.9001 26.2667 79.3075 25.7481 80.4038 24.7111C81.5298 23.6444 82.1223 21.9556 82.1816 19.6444C82.2409 18.3407 82.2705 17.1259 82.2705 16C82.2705 14.8444 82.2409 13.6296 82.1816 12.3556C82.152 10.8148 81.8705 9.55556 81.3372 8.57778C80.8038 7.6 80.0927 6.88889 79.2038 6.44445C78.3446 5.97037 77.3372 5.73333 76.1816 5.73333C75.026 5.73333 74.0038 5.97037 73.1149 6.44445C72.226 6.88889 71.5149 7.6 70.9816 8.57778C70.4779 9.55556 70.1964 10.8148 70.1372 12.3556C70.1075 13.6296 70.0927 14.8444 70.0927 16C70.0927 17.1259 70.1075 18.3407 70.1372 19.6444C70.226 21.9556 70.8186 23.6444 71.9149 24.7111C73.0112 25.7481 74.4335 26.2667 76.1816 26.2667Z" fill="white"/>
<path d="M101.751 13.11C101.106 13.11 100.556 12.989 100.101 12.747C99.6537 12.505 99.309 12.164 99.067 11.724C98.8323 11.284 98.7003 10.767 98.671 10.173C98.6637 9.85034 98.66 9.50934 98.66 9.15001C98.66 8.78334 98.6637 8.43501 98.671 8.10501C98.7003 7.51101 98.8323 6.99767 99.067 6.56501C99.309 6.13234 99.6573 5.79501 100.112 5.55301C100.567 5.31101 101.113 5.19001 101.751 5.19001C102.272 5.19001 102.723 5.26334 103.104 5.41001C103.485 5.55667 103.797 5.74367 104.039 5.97101C104.288 6.19101 104.472 6.42201 104.589 6.66401C104.714 6.90601 104.78 7.11867 104.787 7.30201C104.794 7.36801 104.776 7.42301 104.732 7.46701C104.688 7.50367 104.629 7.52201 104.556 7.52201H103.907C103.834 7.52201 103.779 7.50734 103.742 7.47801C103.713 7.44867 103.683 7.39734 103.654 7.32401C103.588 7.13334 103.478 6.94634 103.324 6.76301C103.177 6.57967 102.976 6.42934 102.719 6.31201C102.47 6.18734 102.147 6.12501 101.751 6.12501C101.172 6.12501 100.702 6.28267 100.343 6.59801C99.991 6.91334 99.8003 7.43401 99.771 8.16001C99.749 8.81267 99.749 9.46534 99.771 10.118C99.8003 10.8513 99.9947 11.3793 100.354 11.702C100.713 12.0173 101.183 12.175 101.762 12.175C102.151 12.175 102.495 12.1053 102.796 11.966C103.104 11.8193 103.346 11.5957 103.522 11.295C103.698 10.9943 103.786 10.613 103.786 10.151V9.68901H102.136C102.063 9.68901 102 9.66701 101.949 9.62301C101.905 9.57167 101.883 9.50567 101.883 9.42501V9.07301C101.883 8.99234 101.905 8.93001 101.949 8.88601C102 8.83467 102.063 8.80901 102.136 8.80901H104.622C104.703 8.80901 104.765 8.83467 104.809 8.88601C104.853 8.93001 104.875 8.99234 104.875 9.07301V10.129C104.875 10.7303 104.75 11.2547 104.501 11.702C104.259 12.1493 103.903 12.4977 103.434 12.747C102.965 12.989 102.404 13.11 101.751 13.11Z" fill="white"/>
<path d="M108.875 13.11C108.406 13.11 108.006 13.0073 107.676 12.802C107.354 12.5893 107.108 12.296 106.939 11.922C106.771 11.548 106.686 11.119 106.686 10.635V7.53301C106.686 7.45967 106.708 7.40101 106.752 7.35701C106.804 7.30567 106.866 7.28001 106.939 7.28001H107.489C107.563 7.28001 107.621 7.30567 107.665 7.35701C107.717 7.40101 107.742 7.45967 107.742 7.53301V10.58C107.742 11.6727 108.219 12.219 109.172 12.219C109.627 12.219 109.99 12.076 110.261 11.79C110.54 11.4967 110.679 11.0933 110.679 10.58V7.53301C110.679 7.45967 110.701 7.40101 110.745 7.35701C110.797 7.30567 110.859 7.28001 110.932 7.28001H111.471C111.552 7.28001 111.614 7.30567 111.658 7.35701C111.702 7.40101 111.724 7.45967 111.724 7.53301V12.747C111.724 12.8203 111.702 12.8827 111.658 12.934C111.614 12.978 111.552 13 111.471 13H110.965C110.892 13 110.83 12.978 110.778 12.934C110.734 12.8827 110.712 12.8203 110.712 12.747V12.263C110.514 12.5197 110.272 12.725 109.986 12.879C109.708 13.033 109.337 13.11 108.875 13.11Z" fill="white"/>
<path d="M115.393 13.11C115.027 13.11 114.693 13.0367 114.392 12.89C114.092 12.7433 113.85 12.5453 113.666 12.296C113.483 12.0467 113.391 11.7643 113.391 11.449C113.391 10.943 113.597 10.5397 114.007 10.239C114.418 9.93834 114.953 9.74034 115.613 9.64501L117.252 9.41401V9.09501C117.252 8.74301 117.15 8.46801 116.944 8.27001C116.746 8.07201 116.42 7.97301 115.965 7.97301C115.635 7.97301 115.368 8.03901 115.162 8.17101C114.964 8.30301 114.825 8.47167 114.744 8.67701C114.7 8.78701 114.623 8.84201 114.513 8.84201H114.018C113.938 8.84201 113.875 8.82001 113.831 8.77601C113.795 8.72467 113.776 8.66601 113.776 8.60001C113.776 8.49001 113.817 8.35434 113.897 8.19301C113.985 8.03167 114.117 7.87401 114.293 7.72001C114.469 7.56601 114.693 7.43767 114.964 7.33501C115.243 7.22501 115.58 7.17001 115.976 7.17001C116.416 7.17001 116.787 7.22867 117.087 7.34601C117.388 7.45601 117.623 7.60634 117.791 7.79701C117.967 7.98767 118.092 8.20401 118.165 8.44601C118.246 8.68801 118.286 8.93367 118.286 9.18301V12.747C118.286 12.8203 118.261 12.8827 118.209 12.934C118.165 12.978 118.107 13 118.033 13H117.527C117.447 13 117.384 12.978 117.34 12.934C117.296 12.8827 117.274 12.8203 117.274 12.747V12.274C117.179 12.406 117.051 12.538 116.889 12.67C116.728 12.7947 116.526 12.901 116.284 12.989C116.042 13.0697 115.745 13.11 115.393 13.11ZM115.624 12.285C115.925 12.285 116.2 12.2227 116.449 12.098C116.699 11.966 116.893 11.7643 117.032 11.493C117.179 11.2217 117.252 10.8807 117.252 10.47V10.162L115.976 10.349C115.456 10.4223 115.063 10.547 114.799 10.723C114.535 10.8917 114.403 11.108 114.403 11.372C114.403 11.5773 114.462 11.7497 114.579 11.889C114.704 12.021 114.858 12.12 115.041 12.186C115.232 12.252 115.426 12.285 115.624 12.285Z" fill="white"/>
<path d="M120.561 13C120.487 13 120.425 12.978 120.374 12.934C120.33 12.8827 120.308 12.8203 120.308 12.747V7.54401C120.308 7.47067 120.33 7.40834 120.374 7.35701C120.425 7.30567 120.487 7.28001 120.561 7.28001H121.067C121.14 7.28001 121.202 7.30567 121.254 7.35701C121.305 7.40834 121.331 7.47067 121.331 7.54401V8.02801C121.477 7.77867 121.679 7.59167 121.936 7.46701C122.192 7.34234 122.5 7.28001 122.86 7.28001H123.3C123.373 7.28001 123.432 7.30567 123.476 7.35701C123.52 7.40101 123.542 7.45967 123.542 7.53301V7.98401C123.542 8.05734 123.52 8.11601 123.476 8.16001C123.432 8.20401 123.373 8.22601 123.3 8.22601H122.64C122.244 8.22601 121.932 8.34334 121.705 8.57801C121.477 8.80534 121.364 9.11701 121.364 9.51301V12.747C121.364 12.8203 121.338 12.8827 121.287 12.934C121.235 12.978 121.173 13 121.1 13H120.561Z" fill="white"/>
<path d="M126.898 13.11C126.495 13.11 126.147 13.0403 125.853 12.901C125.56 12.7543 125.318 12.56 125.127 12.318C124.944 12.0687 124.805 11.7863 124.709 11.471C124.621 11.1557 124.57 10.822 124.555 10.47C124.548 10.3527 124.544 10.2427 124.544 10.14C124.544 10.0373 124.548 9.92734 124.555 9.81001C124.57 9.46534 124.621 9.13534 124.709 8.82001C124.805 8.50467 124.944 8.22234 125.127 7.97301C125.318 7.72367 125.56 7.52934 125.853 7.39001C126.147 7.24334 126.495 7.17001 126.898 7.17001C127.331 7.17001 127.69 7.24701 127.976 7.40101C128.262 7.55501 128.497 7.74567 128.68 7.97301V5.44301C128.68 5.36967 128.702 5.31101 128.746 5.26701C128.798 5.21567 128.86 5.19001 128.933 5.19001H129.461C129.535 5.19001 129.593 5.21567 129.637 5.26701C129.689 5.31101 129.714 5.36967 129.714 5.44301V12.747C129.714 12.8203 129.689 12.8827 129.637 12.934C129.593 12.978 129.535 13 129.461 13H128.966C128.886 13 128.823 12.978 128.779 12.934C128.735 12.8827 128.713 12.8203 128.713 12.747V12.285C128.53 12.5197 128.292 12.7177 127.998 12.879C127.705 13.033 127.338 13.11 126.898 13.11ZM127.129 12.219C127.496 12.219 127.789 12.1347 128.009 11.966C128.229 11.7973 128.394 11.5847 128.504 11.328C128.614 11.064 128.673 10.7963 128.68 10.525C128.688 10.4077 128.691 10.2683 128.691 10.107C128.691 9.93834 128.688 9.79534 128.68 9.67801C128.673 9.42134 128.611 9.16834 128.493 8.91901C128.383 8.66967 128.215 8.46434 127.987 8.30301C127.767 8.14167 127.481 8.06101 127.129 8.06101C126.755 8.06101 126.458 8.14534 126.238 8.31401C126.018 8.47534 125.861 8.69167 125.765 8.96301C125.67 9.22701 125.615 9.51301 125.6 9.82101C125.593 10.0337 125.593 10.2463 125.6 10.459C125.615 10.767 125.67 11.0567 125.765 11.328C125.861 11.592 126.018 11.8083 126.238 11.977C126.458 12.1383 126.755 12.219 127.129 12.219Z" fill="white"/>
<path d="M132.043 13C131.97 13 131.908 12.978 131.856 12.934C131.812 12.8827 131.79 12.8203 131.79 12.747V7.53301C131.79 7.45967 131.812 7.40101 131.856 7.35701C131.908 7.30567 131.97 7.28001 132.043 7.28001H132.571C132.645 7.28001 132.703 7.30567 132.747 7.35701C132.791 7.40101 132.813 7.45967 132.813 7.53301V12.747C132.813 12.8203 132.791 12.8827 132.747 12.934C132.703 12.978 132.645 13 132.571 13H132.043ZM131.955 6.21301C131.882 6.21301 131.82 6.19101 131.768 6.14701C131.724 6.09567 131.702 6.03334 131.702 5.96001V5.36601C131.702 5.29267 131.724 5.23401 131.768 5.19001C131.82 5.13867 131.882 5.11301 131.955 5.11301H132.648C132.722 5.11301 132.78 5.13867 132.824 5.19001C132.876 5.23401 132.901 5.29267 132.901 5.36601V5.96001C132.901 6.03334 132.876 6.09567 132.824 6.14701C132.78 6.19101 132.722 6.21301 132.648 6.21301H131.955Z" fill="white"/>
<path d="M136.489 13.11C136.123 13.11 135.789 13.0367 135.488 12.89C135.188 12.7433 134.946 12.5453 134.762 12.296C134.579 12.0467 134.487 11.7643 134.487 11.449C134.487 10.943 134.693 10.5397 135.103 10.239C135.514 9.93834 136.049 9.74034 136.709 9.64501L138.348 9.41401V9.09501C138.348 8.74301 138.246 8.46801 138.04 8.27001C137.842 8.07201 137.516 7.97301 137.061 7.97301C136.731 7.97301 136.464 8.03901 136.258 8.17101C136.06 8.30301 135.921 8.47167 135.84 8.67701C135.796 8.78701 135.719 8.84201 135.609 8.84201H135.114C135.034 8.84201 134.971 8.82001 134.927 8.77601C134.891 8.72467 134.872 8.66601 134.872 8.60001C134.872 8.49001 134.913 8.35434 134.993 8.19301C135.081 8.03167 135.213 7.87401 135.389 7.72001C135.565 7.56601 135.789 7.43767 136.06 7.33501C136.339 7.22501 136.676 7.17001 137.072 7.17001C137.512 7.17001 137.883 7.22867 138.183 7.34601C138.484 7.45601 138.719 7.60634 138.887 7.79701C139.063 7.98767 139.188 8.20401 139.261 8.44601C139.342 8.68801 139.382 8.93367 139.382 9.18301V12.747C139.382 12.8203 139.357 12.8827 139.305 12.934C139.261 12.978 139.203 13 139.129 13H138.623C138.543 13 138.48 12.978 138.436 12.934C138.392 12.8827 138.37 12.8203 138.37 12.747V12.274C138.275 12.406 138.147 12.538 137.985 12.67C137.824 12.7947 137.622 12.901 137.38 12.989C137.138 13.0697 136.841 13.11 136.489 13.11ZM136.72 12.285C137.021 12.285 137.296 12.2227 137.545 12.098C137.795 11.966 137.989 11.7643 138.128 11.493C138.275 11.2217 138.348 10.8807 138.348 10.47V10.162L137.072 10.349C136.552 10.4223 136.159 10.547 135.895 10.723C135.631 10.8917 135.499 11.108 135.499 11.372C135.499 11.5773 135.558 11.7497 135.675 11.889C135.8 12.021 135.954 12.12 136.137 12.186C136.328 12.252 136.522 12.285 136.72 12.285Z" fill="white"/>
<path d="M141.657 13C141.583 13 141.521 12.978 141.47 12.934C141.426 12.8827 141.404 12.8203 141.404 12.747V7.53301C141.404 7.45967 141.426 7.40101 141.47 7.35701C141.521 7.30567 141.583 7.28001 141.657 7.28001H142.174C142.247 7.28001 142.306 7.30567 142.35 7.35701C142.401 7.40101 142.427 7.45967 142.427 7.53301V8.01701C142.617 7.76767 142.856 7.56601 143.142 7.41201C143.435 7.25067 143.809 7.17001 144.264 7.17001C144.74 7.17001 145.144 7.27634 145.474 7.48901C145.811 7.69434 146.064 7.98401 146.233 8.35801C146.401 8.72467 146.486 9.15367 146.486 9.64501V12.747C146.486 12.8203 146.464 12.8827 146.42 12.934C146.376 12.978 146.317 13 146.244 13H145.694C145.62 13 145.558 12.978 145.507 12.934C145.463 12.8827 145.441 12.8203 145.441 12.747V9.70001C145.441 9.18667 145.316 8.78701 145.067 8.50101C144.817 8.20767 144.451 8.06101 143.967 8.06101C143.512 8.06101 143.145 8.20767 142.867 8.50101C142.595 8.78701 142.46 9.18667 142.46 9.70001V12.747C142.46 12.8203 142.434 12.8827 142.383 12.934C142.339 12.978 142.28 13 142.207 13H141.657Z" fill="white"/>
<path d="M150.495 13.11C150.084 13.11 149.732 13.0587 149.439 12.956C149.145 12.8533 148.907 12.7287 148.724 12.582C148.54 12.4353 148.401 12.2887 148.306 12.142C148.218 11.9953 148.17 11.878 148.163 11.79C148.155 11.7093 148.181 11.647 148.24 11.603C148.298 11.559 148.357 11.537 148.416 11.537H148.9C148.944 11.537 148.977 11.5443 148.999 11.559C149.028 11.5663 149.065 11.5957 149.109 11.647C149.204 11.7497 149.31 11.8523 149.428 11.955C149.545 12.0577 149.688 12.142 149.857 12.208C150.033 12.274 150.249 12.307 150.506 12.307C150.88 12.307 151.188 12.2373 151.43 12.098C151.672 11.9513 151.793 11.7387 151.793 11.46C151.793 11.2767 151.741 11.13 151.639 11.02C151.543 10.91 151.367 10.811 151.111 10.723C150.861 10.635 150.517 10.5433 150.077 10.448C149.637 10.3453 149.288 10.2207 149.032 10.074C148.775 9.92001 148.592 9.74034 148.482 9.53501C148.372 9.32234 148.317 9.08401 148.317 8.82001C148.317 8.54867 148.397 8.28834 148.559 8.03901C148.72 7.78234 148.955 7.57334 149.263 7.41201C149.578 7.25067 149.97 7.17001 150.44 7.17001C150.821 7.17001 151.147 7.21767 151.419 7.31301C151.69 7.40834 151.914 7.52934 152.09 7.67601C152.266 7.81534 152.398 7.95467 152.486 8.09401C152.574 8.23334 152.621 8.35067 152.629 8.44601C152.636 8.51934 152.614 8.58167 152.563 8.63301C152.511 8.67701 152.453 8.69901 152.387 8.69901H151.925C151.873 8.69901 151.829 8.68801 151.793 8.66601C151.763 8.64401 151.734 8.61834 151.705 8.58901C151.631 8.49367 151.543 8.39834 151.441 8.30301C151.345 8.20767 151.217 8.13067 151.056 8.07201C150.902 8.00601 150.696 7.97301 150.44 7.97301C150.073 7.97301 149.798 8.05001 149.615 8.20401C149.431 8.35801 149.34 8.55234 149.34 8.78701C149.34 8.92634 149.38 9.05101 149.461 9.16101C149.541 9.27101 149.695 9.37001 149.923 9.45801C150.15 9.54601 150.487 9.64134 150.935 9.74401C151.419 9.83934 151.8 9.96767 152.079 10.129C152.357 10.2903 152.555 10.4773 152.673 10.69C152.79 10.9027 152.849 11.1483 152.849 11.427C152.849 11.735 152.757 12.0173 152.574 12.274C152.398 12.5307 152.134 12.736 151.782 12.89C151.437 13.0367 151.008 13.11 150.495 13.11Z" fill="white"/>
<path d="M101.157 28.11C100.6 28.11 100.134 28.0037 99.76 27.791C99.386 27.5783 99.1 27.285 98.902 26.911C98.704 26.5297 98.594 26.097 98.572 25.613C98.5647 25.4883 98.561 25.3307 98.561 25.14C98.561 24.942 98.5647 24.7843 98.572 24.667C98.594 24.1757 98.704 23.743 98.902 23.369C99.1073 22.995 99.397 22.7017 99.771 22.489C100.145 22.2763 100.607 22.17 101.157 22.17C101.707 22.17 102.169 22.2763 102.543 22.489C102.917 22.7017 103.203 22.995 103.401 23.369C103.606 23.743 103.72 24.1757 103.742 24.667C103.749 24.7843 103.753 24.942 103.753 25.14C103.753 25.3307 103.749 25.4883 103.742 25.613C103.72 26.097 103.61 26.5297 103.412 26.911C103.214 27.285 102.928 27.5783 102.554 27.791C102.18 28.0037 101.714 28.11 101.157 28.11ZM101.157 27.263C101.612 27.263 101.975 27.12 102.246 26.834C102.517 26.5407 102.664 26.1153 102.686 25.558C102.693 25.448 102.697 25.3087 102.697 25.14C102.697 24.9713 102.693 24.832 102.686 24.722C102.664 24.1647 102.517 23.743 102.246 23.457C101.975 23.1637 101.612 23.017 101.157 23.017C100.702 23.017 100.336 23.1637 100.057 23.457C99.7857 23.743 99.6427 24.1647 99.628 24.722C99.6207 24.832 99.617 24.9713 99.617 25.14C99.617 25.3087 99.6207 25.448 99.628 25.558C99.6427 26.1153 99.7857 26.5407 100.057 26.834C100.336 27.12 100.702 27.263 101.157 27.263Z" fill="white"/>
<path d="M106.331 28C106.258 28 106.195 27.978 106.144 27.934C106.1 27.8827 106.078 27.8203 106.078 27.747V23.16H105.143C105.07 23.16 105.007 23.138 104.956 23.094C104.912 23.0427 104.89 22.9803 104.89 22.907V22.533C104.89 22.4597 104.912 22.401 104.956 22.357C105.007 22.3057 105.07 22.28 105.143 22.28H106.078V21.73C106.078 21.356 106.14 21.0297 106.265 20.751C106.39 20.465 106.588 20.245 106.859 20.091C107.138 19.937 107.508 19.86 107.97 19.86H108.63C108.703 19.86 108.762 19.8857 108.806 19.937C108.85 19.981 108.872 20.0397 108.872 20.113V20.487C108.872 20.5603 108.85 20.6227 108.806 20.674C108.762 20.718 108.703 20.74 108.63 20.74H107.992C107.647 20.74 107.413 20.8317 107.288 21.015C107.163 21.191 107.101 21.4477 107.101 21.785V22.28H108.52C108.593 22.28 108.652 22.3057 108.696 22.357C108.74 22.401 108.762 22.4597 108.762 22.533V22.907C108.762 22.9803 108.74 23.0427 108.696 23.094C108.652 23.138 108.593 23.16 108.52 23.16H107.101V27.747C107.101 27.8203 107.075 27.8827 107.024 27.934C106.98 27.978 106.921 28 106.848 28H106.331Z" fill="white"/>
<path d="M115.972 28.11C115.348 28.11 114.813 28.0037 114.366 27.791C113.918 27.571 113.574 27.2373 113.332 26.79C113.09 26.3353 112.954 25.767 112.925 25.085C112.917 24.7623 112.914 24.4543 112.914 24.161C112.914 23.8603 112.917 23.5487 112.925 23.226C112.954 22.5513 113.093 21.9903 113.343 21.543C113.599 21.0883 113.951 20.751 114.399 20.531C114.853 20.3037 115.378 20.19 115.972 20.19C116.573 20.19 117.097 20.3037 117.545 20.531C117.999 20.751 118.355 21.0883 118.612 21.543C118.868 21.9903 119.008 22.5513 119.03 23.226C119.044 23.5487 119.052 23.8603 119.052 24.161C119.052 24.4543 119.044 24.7623 119.03 25.085C119.008 25.767 118.872 26.3353 118.623 26.79C118.381 27.2373 118.036 27.571 117.589 27.791C117.141 28.0037 116.602 28.11 115.972 28.11ZM115.972 27.175C116.536 27.175 116.995 27.0063 117.347 26.669C117.706 26.3317 117.9 25.7853 117.93 25.03C117.944 24.7 117.952 24.4067 117.952 24.15C117.952 23.886 117.944 23.5927 117.93 23.27C117.915 22.764 117.82 22.3533 117.644 22.038C117.475 21.7227 117.248 21.4917 116.962 21.345C116.676 21.1983 116.346 21.125 115.972 21.125C115.612 21.125 115.29 21.1983 115.004 21.345C114.718 21.4917 114.487 21.7227 114.311 22.038C114.142 22.3533 114.047 22.764 114.025 23.27C114.017 23.5927 114.014 23.886 114.014 24.15C114.014 24.4067 114.017 24.7 114.025 25.03C114.054 25.7853 114.248 26.3317 114.608 26.669C114.967 27.0063 115.422 27.175 115.972 27.175Z" fill="white"/>
<path d="M121.216 28C121.143 28 121.08 27.978 121.029 27.934C120.985 27.8827 120.963 27.8203 120.963 27.747V20.443C120.963 20.3697 120.985 20.311 121.029 20.267C121.08 20.2157 121.143 20.19 121.216 20.19H121.733C121.814 20.19 121.876 20.2157 121.92 20.267C121.964 20.311 121.986 20.3697 121.986 20.443V27.747C121.986 27.8203 121.964 27.8827 121.92 27.934C121.876 27.978 121.814 28 121.733 28H121.216Z" fill="white"/>
<path d="M125.068 30.09C125.009 30.09 124.958 30.068 124.914 30.024C124.87 29.98 124.848 29.9287 124.848 29.87C124.848 29.8407 124.851 29.8113 124.859 29.782C124.866 29.7527 124.881 29.716 124.903 29.672L125.75 27.659L123.649 22.698C123.612 22.61 123.594 22.5477 123.594 22.511C123.594 22.445 123.616 22.39 123.66 22.346C123.704 22.302 123.759 22.28 123.825 22.28H124.364C124.437 22.28 124.496 22.2983 124.54 22.335C124.584 22.3717 124.613 22.4157 124.628 22.467L126.3 26.471L128.016 22.467C128.038 22.4157 128.067 22.3717 128.104 22.335C128.148 22.2983 128.21 22.28 128.291 22.28H128.808C128.874 22.28 128.929 22.302 128.973 22.346C129.017 22.39 129.039 22.4413 129.039 22.5C129.039 22.5367 129.02 22.6027 128.984 22.698L125.86 29.903C125.838 29.9543 125.805 29.9983 125.761 30.035C125.724 30.0717 125.665 30.09 125.585 30.09H125.068Z" fill="white"/>
<path d="M130.818 28C130.745 28 130.683 27.978 130.631 27.934C130.587 27.8827 130.565 27.8203 130.565 27.747V22.533C130.565 22.4597 130.587 22.401 130.631 22.357C130.683 22.3057 130.745 22.28 130.818 22.28H131.313C131.387 22.28 131.445 22.3057 131.489 22.357C131.541 22.401 131.566 22.4597 131.566 22.533V22.918C131.735 22.6907 131.948 22.511 132.204 22.379C132.461 22.2397 132.769 22.17 133.128 22.17C133.957 22.1627 134.544 22.5 134.888 23.182C135.057 22.874 135.303 22.6283 135.625 22.445C135.948 22.2617 136.315 22.17 136.725 22.17C137.107 22.17 137.451 22.258 137.759 22.434C138.075 22.61 138.32 22.8777 138.496 23.237C138.68 23.589 138.771 24.0327 138.771 24.568V27.747C138.771 27.8203 138.746 27.8827 138.694 27.934C138.65 27.978 138.592 28 138.518 28H138.001C137.928 28 137.866 27.978 137.814 27.934C137.77 27.8827 137.748 27.8203 137.748 27.747V24.667C137.748 24.2563 137.69 23.9337 137.572 23.699C137.455 23.4643 137.297 23.2993 137.099 23.204C136.901 23.1087 136.685 23.061 136.45 23.061C136.26 23.061 136.065 23.1087 135.867 23.204C135.669 23.2993 135.504 23.4643 135.372 23.699C135.248 23.9337 135.185 24.2563 135.185 24.667V27.747C135.185 27.8203 135.16 27.8827 135.108 27.934C135.064 27.978 135.006 28 134.932 28H134.415C134.342 28 134.28 27.978 134.228 27.934C134.184 27.8827 134.162 27.8203 134.162 27.747V24.667C134.162 24.2563 134.1 23.9337 133.975 23.699C133.851 23.4643 133.689 23.2993 133.491 23.204C133.293 23.1087 133.084 23.061 132.864 23.061C132.674 23.061 132.479 23.1087 132.281 23.204C132.083 23.2993 131.918 23.4643 131.786 23.699C131.662 23.9337 131.599 24.2527 131.599 24.656V27.747C131.599 27.8203 131.574 27.8827 131.522 27.934C131.478 27.978 131.42 28 131.346 28H130.818Z" fill="white"/>
<path d="M141.045 30.09C140.971 30.09 140.909 30.0643 140.858 30.013C140.814 29.969 140.792 29.9103 140.792 29.837V22.533C140.792 22.4597 140.814 22.401 140.858 22.357C140.909 22.3057 140.971 22.28 141.045 22.28H141.551C141.624 22.28 141.683 22.3057 141.727 22.357C141.778 22.401 141.804 22.4597 141.804 22.533V23.017C141.98 22.775 142.214 22.5733 142.508 22.412C142.801 22.2507 143.168 22.17 143.608 22.17C144.018 22.17 144.367 22.2397 144.653 22.379C144.946 22.5183 145.184 22.709 145.368 22.951C145.558 23.193 145.701 23.468 145.797 23.776C145.892 24.084 145.943 24.414 145.951 24.766C145.958 24.8833 145.962 25.008 145.962 25.14C145.962 25.272 145.958 25.3967 145.951 25.514C145.943 25.8587 145.892 26.1887 145.797 26.504C145.701 26.812 145.558 27.087 145.368 27.329C145.184 27.5637 144.946 27.7543 144.653 27.901C144.367 28.0403 144.018 28.11 143.608 28.11C143.182 28.11 142.823 28.033 142.53 27.879C142.244 27.7177 142.009 27.5197 141.826 27.285V29.837C141.826 29.9103 141.804 29.969 141.76 30.013C141.716 30.0643 141.653 30.09 141.573 30.09H141.045ZM143.377 27.219C143.758 27.219 144.055 27.1383 144.268 26.977C144.488 26.8083 144.645 26.592 144.741 26.328C144.836 26.0567 144.891 25.767 144.906 25.459C144.913 25.2463 144.913 25.0337 144.906 24.821C144.891 24.513 144.836 24.227 144.741 23.963C144.645 23.6917 144.488 23.4753 144.268 23.314C144.055 23.1453 143.758 23.061 143.377 23.061C143.017 23.061 142.724 23.1453 142.497 23.314C142.277 23.4827 142.112 23.699 142.002 23.963C141.899 24.2197 141.84 24.4837 141.826 24.755C141.818 24.8723 141.815 25.0117 141.815 25.173C141.815 25.3343 141.818 25.4773 141.826 25.602C141.833 25.8587 141.892 26.1117 142.002 26.361C142.119 26.6103 142.291 26.8157 142.519 26.977C142.746 27.1383 143.032 27.219 143.377 27.219Z" fill="white"/>
<path d="M149.907 28.11C149.438 28.11 149.038 28.0073 148.708 27.802C148.386 27.5893 148.14 27.296 147.971 26.922C147.803 26.548 147.718 26.119 147.718 25.635V22.533C147.718 22.4597 147.74 22.401 147.784 22.357C147.836 22.3057 147.898 22.28 147.971 22.28H148.521C148.595 22.28 148.653 22.3057 148.697 22.357C148.749 22.401 148.774 22.4597 148.774 22.533V25.58C148.774 26.6727 149.251 27.219 150.204 27.219C150.659 27.219 151.022 27.076 151.293 26.79C151.572 26.4967 151.711 26.0933 151.711 25.58V22.533C151.711 22.4597 151.733 22.401 151.777 22.357C151.829 22.3057 151.891 22.28 151.964 22.28H152.503C152.584 22.28 152.646 22.3057 152.69 22.357C152.734 22.401 152.756 22.4597 152.756 22.533V27.747C152.756 27.8203 152.734 27.8827 152.69 27.934C152.646 27.978 152.584 28 152.503 28H151.997C151.924 28 151.862 27.978 151.81 27.934C151.766 27.8827 151.744 27.8203 151.744 27.747V27.263C151.546 27.5197 151.304 27.725 151.018 27.879C150.74 28.033 150.369 28.11 149.907 28.11Z" fill="white"/>
<path d="M156.811 28.11C156.4 28.11 156.048 28.0587 155.755 27.956C155.461 27.8533 155.223 27.7287 155.04 27.582C154.856 27.4353 154.717 27.2887 154.622 27.142C154.534 26.9953 154.486 26.878 154.479 26.79C154.471 26.7093 154.497 26.647 154.556 26.603C154.614 26.559 154.673 26.537 154.732 26.537H155.216C155.26 26.537 155.293 26.5443 155.315 26.559C155.344 26.5663 155.381 26.5957 155.425 26.647C155.52 26.7497 155.626 26.8523 155.744 26.955C155.861 27.0577 156.004 27.142 156.173 27.208C156.349 27.274 156.565 27.307 156.822 27.307C157.196 27.307 157.504 27.2373 157.746 27.098C157.988 26.9513 158.109 26.7387 158.109 26.46C158.109 26.2767 158.057 26.13 157.955 26.02C157.859 25.91 157.683 25.811 157.427 25.723C157.177 25.635 156.833 25.5433 156.393 25.448C155.953 25.3453 155.604 25.2207 155.348 25.074C155.091 24.92 154.908 24.7403 154.798 24.535C154.688 24.3223 154.633 24.084 154.633 23.82C154.633 23.5487 154.713 23.2883 154.875 23.039C155.036 22.7823 155.271 22.5733 155.579 22.412C155.894 22.2507 156.286 22.17 156.756 22.17C157.137 22.17 157.463 22.2177 157.735 22.313C158.006 22.4083 158.23 22.5293 158.406 22.676C158.582 22.8153 158.714 22.9547 158.802 23.094C158.89 23.2333 158.937 23.3507 158.945 23.446C158.952 23.5193 158.93 23.5817 158.879 23.633C158.827 23.677 158.769 23.699 158.703 23.699H158.241C158.189 23.699 158.145 23.688 158.109 23.666C158.079 23.644 158.05 23.6183 158.021 23.589C157.947 23.4937 157.859 23.3983 157.757 23.303C157.661 23.2077 157.533 23.1307 157.372 23.072C157.218 23.006 157.012 22.973 156.756 22.973C156.389 22.973 156.114 23.05 155.931 23.204C155.747 23.358 155.656 23.5523 155.656 23.787C155.656 23.9263 155.696 24.051 155.777 24.161C155.857 24.271 156.011 24.37 156.239 24.458C156.466 24.546 156.803 24.6413 157.251 24.744C157.735 24.8393 158.116 24.9677 158.395 25.129C158.673 25.2903 158.871 25.4773 158.989 25.69C159.106 25.9027 159.165 26.1483 159.165 26.427C159.165 26.735 159.073 27.0173 158.89 27.274C158.714 27.5307 158.45 27.736 158.098 27.89C157.753 28.0367 157.324 28.11 156.811 28.11Z" fill="white"/>
</svg>
